<svg width="15" height="15" viewBox="0 0 15 15" fill="none" xmlns="http://www.w3.org/2000/svg">
  <path
    d="M7.5 0C3.35815 0 0 3.35815 0 7.5C0 8.90701 0.395203 10.2188 1.06934 11.344L0.0671387 15L3.80127 14.0198C4.89334 14.6407 6.15402 15 7.5 15C11.6418 15 15 11.6418 15 7.5C15 3.35815 11.6418 0 7.5 0ZM4.93286 4.00147C5.05478 4.00147 5.1799 4.0007 5.28809 4.00635C5.42191 4.0094 5.56747 4.01932 5.70679 4.32739C5.87235 4.6936 6.23306 5.61249 6.2793 5.70557C6.32553 5.79865 6.35834 5.90836 6.29395 6.03027C6.23276 6.15524 6.20087 6.23093 6.11084 6.34155C6.01776 6.44898 5.91568 6.58264 5.8313 6.66382C5.73822 6.7569 5.64194 6.85898 5.74951 7.04468C5.85693 7.23038 6.23032 7.8389 6.78223 8.33008C7.49161 8.96378 8.09006 9.15863 8.27637 9.25171C8.46268 9.34479 8.5704 9.33029 8.67798 9.20532C8.78861 9.08341 9.14261 8.66531 9.26758 8.479C9.3895 8.29269 9.51386 8.32504 9.68262 8.38623C9.85382 8.44742 10.7671 8.8974 10.9534 8.99048C11.1397 9.08356 11.2618 9.12964 11.3086 9.20532C11.3567 9.28345 11.3568 9.6553 11.2024 10.0891C11.048 10.5223 10.2899 10.941 9.94995 10.9705C9.60678 11.0024 9.28665 11.1247 7.71973 10.5078C5.82977 9.76349 4.63776 7.82761 4.54468 7.70264C4.4516 7.58072 3.78784 6.69617 3.78784 5.78369C3.78784 4.86801 4.26788 4.41971 4.43604 4.2334C4.60724 4.04709 4.80789 4.00147 4.93286 4.00147Z"
    fill="#2B2929" />
</svg>
