<svg width="30" height="30" viewBox="0 0 30 30" fill="none" xmlns="http://www.w3.org/2000/svg">
  <path
    d="M15 0C6.71631 0 0 6.71631 0 15C0 17.814 0.790405 20.4376 2.13867 22.688L0.134277 30L7.60254 28.0396C9.78668 29.2813 12.308 30 15 30C23.2837 30 30 23.2837 30 15C30 6.71631 23.2837 0 15 0ZM9.86572 8.00293C10.1096 8.00293 10.3598 8.0014 10.5762 8.0127C10.8438 8.0188 11.1349 8.03864 11.4136 8.65479C11.7447 9.38721 12.4661 11.225 12.5586 11.4111C12.6511 11.5973 12.7167 11.8167 12.5879 12.0605C12.4655 12.3105 12.4017 12.4619 12.2217 12.6831C12.0355 12.8979 11.8314 13.1653 11.6626 13.3276C11.4764 13.5138 11.2839 13.718 11.499 14.0894C11.7139 14.4608 12.4606 15.6778 13.5645 16.6602C14.9832 17.9276 16.1801 18.3173 16.5527 18.5034C16.9254 18.6896 17.1408 18.6606 17.356 18.4106C17.5772 18.1668 18.2852 17.3306 18.5352 16.958C18.779 16.5854 19.0277 16.6501 19.3652 16.7725C19.7076 16.8948 21.5341 17.7948 21.9067 17.981C22.2794 18.1671 22.5235 18.2593 22.6172 18.4106C22.7133 18.5669 22.7136 19.3106 22.4048 20.1782C22.0959 21.0446 20.5798 21.882 19.8999 21.9409C19.2136 22.0047 18.5733 22.2495 15.4395 21.0156C11.6595 19.527 9.27551 15.6552 9.08936 15.4053C8.9032 15.1614 7.57568 13.3923 7.57568 11.5674C7.57568 9.73602 8.53577 8.83942 8.87207 8.4668C9.21448 8.09418 9.61578 8.00293 9.86572 8.00293Z"
    fill="#ffffff" />
</svg>
