<svg width="94" height="25" viewBox="0 0 94 25" fill="none" xmlns="http://www.w3.org/2000/svg">
<path d="M2.38636 23.0909C1.97727 23.0909 1.625 22.9943 1.32955 22.8011C1.03409 22.608 0.806818 22.3419 0.647727 22.0028C0.488636 21.6638 0.409091 21.2765 0.409091 20.8409C0.409091 20.3977 0.49053 20.0066 0.653409 19.6676C0.818182 19.3267 1.04735 19.0606 1.34091 18.8693C1.63636 18.6761 1.98106 18.5795 2.375 18.5795C2.68182 18.5795 2.95833 18.6364 3.20455 18.75C3.45076 18.8636 3.65246 19.0227 3.80966 19.2273C3.96686 19.4318 4.06439 19.6705 4.10227 19.9432H3.43182C3.38068 19.7443 3.26705 19.5682 3.09091 19.4148C2.91667 19.2595 2.68182 19.1818 2.38636 19.1818C2.125 19.1818 1.89583 19.25 1.69886 19.3864C1.50379 19.5208 1.35133 19.7112 1.24148 19.9574C1.13352 20.2017 1.07955 20.4886 1.07955 20.8182C1.07955 21.1553 1.13258 21.4489 1.23864 21.6989C1.34659 21.9489 1.49811 22.143 1.69318 22.2812C1.89015 22.4195 2.12121 22.4886 2.38636 22.4886C2.56061 22.4886 2.71875 22.4583 2.8608 22.3977C3.00284 22.3371 3.12311 22.25 3.22159 22.1364C3.32008 22.0227 3.39015 21.8864 3.43182 21.7273H4.10227C4.06439 21.9848 3.97064 22.2169 3.82102 22.4233C3.6733 22.6278 3.47727 22.7907 3.23295 22.9119C2.99053 23.0312 2.70833 23.0909 2.38636 23.0909ZM4.89864 19.2614V18.6364H8.44409V19.2614H7.01227V23H6.34182V19.2614H4.89864ZM11.1282 23.0909C10.7343 23.0909 10.3887 22.9972 10.0913 22.8097C9.79585 22.6222 9.56479 22.3598 9.39812 22.0227C9.23335 21.6856 9.15097 21.2917 9.15097 20.8409C9.15097 20.3864 9.23335 19.9896 9.39812 19.6506C9.56479 19.3116 9.79585 19.0483 10.0913 18.8608C10.3887 18.6733 10.7343 18.5795 11.1282 18.5795C11.5222 18.5795 11.8669 18.6733 12.1623 18.8608C12.4597 19.0483 12.6907 19.3116 12.8555 19.6506C13.0222 19.9896 13.1055 20.3864 13.1055 20.8409C13.1055 21.2917 13.0222 21.6856 12.8555 22.0227C12.6907 22.3598 12.4597 22.6222 12.1623 22.8097C11.8669 22.9972 11.5222 23.0909 11.1282 23.0909ZM11.1282 22.4886C11.4275 22.4886 11.6737 22.4119 11.8669 22.2585C12.0601 22.1051 12.203 21.9034 12.2959 21.6534C12.3887 21.4034 12.4351 21.1326 12.4351 20.8409C12.4351 20.5492 12.3887 20.2775 12.2959 20.0256C12.203 19.7737 12.0601 19.5701 11.8669 19.4148C11.6737 19.2595 11.4275 19.1818 11.1282 19.1818C10.829 19.1818 10.5828 19.2595 10.3896 19.4148C10.1964 19.5701 10.0534 19.7737 9.96062 20.0256C9.86782 20.2775 9.82142 20.5492 9.82142 20.8409C9.82142 21.1326 9.86782 21.4034 9.96062 21.6534C10.0534 21.9034 10.1964 22.1051 10.3896 22.2585C10.5828 22.4119 10.829 22.4886 11.1282 22.4886ZM13.9026 23V22.375H14.0617C14.1924 22.375 14.3013 22.3494 14.3884 22.2983C14.4755 22.2453 14.5456 22.1534 14.5986 22.0227C14.6535 21.8902 14.6952 21.7064 14.7236 21.4716C14.7539 21.2348 14.7757 20.9337 14.7889 20.5682L14.8685 18.6364H17.7776V23H17.1071V19.2614H15.5049L15.4367 20.8182C15.4215 21.1761 15.3893 21.4915 15.3401 21.7642C15.2927 22.035 15.2198 22.2623 15.1213 22.446C15.0247 22.6297 14.896 22.768 14.735 22.8608C14.574 22.9536 14.3723 23 14.1299 23H13.9026ZM21.7927 23V19.25H20.6336C20.3722 19.25 20.1668 19.3106 20.0171 19.4318C19.8675 19.553 19.7927 19.7197 19.7927 19.9318C19.7927 20.1402 19.8599 20.304 19.9944 20.4233C20.1308 20.5426 20.3173 20.6023 20.5541 20.6023H21.9632V21.2273H20.5541C20.2586 21.2273 20.0039 21.1752 19.7899 21.071C19.5758 20.9669 19.4111 20.8182 19.2955 20.625C19.18 20.4299 19.1222 20.1989 19.1222 19.9318C19.1222 19.6629 19.1828 19.4318 19.3041 19.2386C19.4253 19.0455 19.5986 18.8968 19.8239 18.7926C20.0512 18.6884 20.3211 18.6364 20.6336 18.6364H22.4291V23H21.7927ZM18.8836 23L20.1222 20.8295H20.8495L19.6109 23H18.8836ZM23.8199 24.6364V18.6364H24.4676V19.3295H24.5472C24.5964 19.2538 24.6646 19.1572 24.7517 19.0398C24.8407 18.9205 24.9676 18.8144 25.1324 18.7216C25.2991 18.6269 25.5244 18.5795 25.8085 18.5795C26.1759 18.5795 26.4998 18.6714 26.7801 18.8551C27.0604 19.0388 27.2792 19.2992 27.4364 19.6364C27.5936 19.9735 27.6722 20.3712 27.6722 20.8295C27.6722 21.2917 27.5936 21.6922 27.4364 22.0312C27.2792 22.3684 27.0614 22.6297 26.783 22.8153C26.5045 22.9991 26.1835 23.0909 25.8199 23.0909C25.5396 23.0909 25.3152 23.0445 25.1466 22.9517C24.978 22.857 24.8483 22.75 24.7574 22.6307C24.6665 22.5095 24.5964 22.4091 24.5472 22.3295H24.4903V24.6364H23.8199ZM24.479 20.8182C24.479 21.1477 24.5273 21.4384 24.6239 21.6903C24.7205 21.9403 24.8616 22.1364 25.0472 22.2784C25.2328 22.4186 25.46 22.4886 25.729 22.4886C26.0093 22.4886 26.2432 22.4148 26.4307 22.267C26.6201 22.1174 26.7621 21.9167 26.8568 21.6648C26.9534 21.411 27.0017 21.1288 27.0017 20.8182C27.0017 20.5114 26.9544 20.2348 26.8597 19.9886C26.7669 19.7405 26.6258 19.5445 26.4364 19.4006C26.2489 19.2547 26.0131 19.1818 25.729 19.1818C25.4562 19.1818 25.2271 19.2509 25.0415 19.3892C24.8559 19.5256 24.7157 19.7169 24.621 19.9631C24.5263 20.2074 24.479 20.4924 24.479 20.8182ZM31.7753 20.5114V21.1364H29.3662V20.5114H31.7753ZM29.5253 18.6364V23H28.8549V18.6364H29.5253ZM32.2867 18.6364V23H31.6162V18.6364H32.2867ZM34.9552 23.1023C34.6787 23.1023 34.4278 23.0502 34.2024 22.946C33.977 22.84 33.798 22.6875 33.6655 22.4886C33.5329 22.2879 33.4666 22.0455 33.4666 21.7614C33.4666 21.5114 33.5158 21.3087 33.6143 21.1534C33.7128 20.9962 33.8444 20.8731 34.0092 20.7841C34.174 20.6951 34.3558 20.6288 34.5547 20.5852C34.7554 20.5398 34.9571 20.5038 35.1598 20.4773C35.4249 20.4432 35.6399 20.4176 35.8047 20.4006C35.9713 20.3816 36.0925 20.3504 36.1683 20.3068C36.2459 20.2633 36.2848 20.1875 36.2848 20.0795V20.0568C36.2848 19.7765 36.2081 19.5587 36.0547 19.4034C35.9031 19.2481 35.673 19.1705 35.3643 19.1705C35.0442 19.1705 34.7933 19.2405 34.6115 19.3807C34.4297 19.5208 34.3018 19.6705 34.228 19.8295L33.5916 19.6023C33.7052 19.3371 33.8567 19.1307 34.0461 18.983C34.2374 18.8333 34.4458 18.7292 34.6711 18.6705C34.8984 18.6098 35.1219 18.5795 35.3416 18.5795C35.4817 18.5795 35.6427 18.5966 35.8245 18.6307C36.0083 18.6629 36.1853 18.7301 36.3558 18.8324C36.5281 18.9347 36.6711 19.089 36.7848 19.2955C36.8984 19.5019 36.9552 19.7784 36.9552 20.125V23H36.2848V22.4091H36.2507C36.2052 22.5038 36.1295 22.6051 36.0234 22.7131C35.9173 22.821 35.7762 22.9129 35.6001 22.9886C35.424 23.0644 35.209 23.1023 34.9552 23.1023ZM35.0575 22.5C35.3227 22.5 35.5461 22.4479 35.728 22.3438C35.9117 22.2396 36.0499 22.1051 36.1427 21.9403C36.2374 21.7756 36.2848 21.6023 36.2848 21.4205V20.8068C36.2564 20.8409 36.1939 20.8722 36.0973 20.9006C36.0026 20.9271 35.8927 20.9508 35.7677 20.9716C35.6446 20.9905 35.5244 21.0076 35.4069 21.0227C35.2914 21.036 35.1977 21.0473 35.1257 21.0568C34.9514 21.0795 34.7886 21.1165 34.637 21.1676C34.4874 21.2169 34.3662 21.2917 34.2734 21.392C34.1825 21.4905 34.137 21.625 34.137 21.7955C34.137 22.0284 34.2232 22.2045 34.3956 22.3239C34.5698 22.4413 34.7905 22.5 35.0575 22.5ZM40.9639 23V19.25H39.8049C39.5435 19.25 39.338 19.3106 39.1884 19.4318C39.0388 19.553 38.9639 19.7197 38.9639 19.9318C38.9639 20.1402 39.0312 20.304 39.1657 20.4233C39.302 20.5426 39.4886 20.6023 39.7253 20.6023H41.1344V21.2273H39.7253C39.4299 21.2273 39.1751 21.1752 38.9611 21.071C38.7471 20.9669 38.5823 20.8182 38.4668 20.625C38.3513 20.4299 38.2935 20.1989 38.2935 19.9318C38.2935 19.6629 38.3541 19.4318 38.4753 19.2386C38.5965 19.0455 38.7698 18.8968 38.9952 18.7926C39.2225 18.6884 39.4924 18.6364 39.8049 18.6364H41.6003V23H40.9639ZM38.0549 23L39.2935 20.8295H40.0208L38.7821 23H38.0549ZM47.7875 22.0909L49.3102 18.6364H49.9466L48.0602 23H47.5148L45.6625 18.6364H46.2875L47.7875 22.0909ZM46.0716 18.6364V23H45.4011V18.6364H46.0716ZM49.5034 23V18.6364H50.1739V23H49.5034ZM52.8452 23.1023C52.5687 23.1023 52.3178 23.0502 52.0924 22.946C51.867 22.84 51.688 22.6875 51.5555 22.4886C51.4229 22.2879 51.3566 22.0455 51.3566 21.7614C51.3566 21.5114 51.4058 21.3087 51.5043 21.1534C51.6028 20.9962 51.7344 20.8731 51.8992 20.7841C52.064 20.6951 52.2458 20.6288 52.4447 20.5852C52.6454 20.5398 52.8471 20.5038 53.0498 20.4773C53.3149 20.4432 53.5299 20.4176 53.6947 20.4006C53.8613 20.3816 53.9825 20.3504 54.0583 20.3068C54.1359 20.2633 54.1748 20.1875 54.1748 20.0795V20.0568C54.1748 19.7765 54.0981 19.5587 53.9447 19.4034C53.7931 19.2481 53.563 19.1705 53.2543 19.1705C52.9342 19.1705 52.6833 19.2405 52.5015 19.3807C52.3197 19.5208 52.1918 19.6705 52.118 19.8295L51.4816 19.6023C51.5952 19.3371 51.7467 19.1307 51.9361 18.983C52.1274 18.8333 52.3358 18.7292 52.5611 18.6705C52.7884 18.6098 53.0119 18.5795 53.2316 18.5795C53.3717 18.5795 53.5327 18.5966 53.7145 18.6307C53.8983 18.6629 54.0753 18.7301 54.2458 18.8324C54.4181 18.9347 54.5611 19.089 54.6748 19.2955C54.7884 19.5019 54.8452 19.7784 54.8452 20.125V23H54.1748V22.4091H54.1407C54.0952 22.5038 54.0195 22.6051 53.9134 22.7131C53.8073 22.821 53.6662 22.9129 53.4901 22.9886C53.314 23.0644 53.099 23.1023 52.8452 23.1023ZM52.9475 22.5C53.2126 22.5 53.4361 22.4479 53.618 22.3438C53.8017 22.2396 53.9399 22.1051 54.0327 21.9403C54.1274 21.7756 54.1748 21.6023 54.1748 21.4205V20.8068C54.1464 20.8409 54.0839 20.8722 53.9873 20.9006C53.8926 20.9271 53.7827 20.9508 53.6577 20.9716C53.5346 20.9905 53.4144 21.0076 53.2969 21.0227C53.1814 21.036 53.0876 21.0473 53.0157 21.0568C52.8414 21.0795 52.6786 21.1165 52.527 21.1676C52.3774 21.2169 52.2562 21.2917 52.1634 21.392C52.0725 21.4905 52.027 21.625 52.027 21.7955C52.027 22.0284 52.1132 22.2045 52.2856 22.3239C52.4598 22.4413 52.6805 22.5 52.9475 22.5ZM58.0017 23.0909C57.5926 23.0909 57.2403 22.9943 56.9449 22.8011C56.6494 22.608 56.4221 22.3419 56.263 22.0028C56.1039 21.6638 56.0244 21.2765 56.0244 20.8409C56.0244 20.3977 56.1058 20.0066 56.2687 19.6676C56.4335 19.3267 56.6627 19.0606 56.9562 18.8693C57.2517 18.6761 57.5964 18.5795 57.9903 18.5795C58.2971 18.5795 58.5736 18.6364 58.8199 18.75C59.0661 18.8636 59.2678 19.0227 59.425 19.2273C59.5822 19.4318 59.6797 19.6705 59.7176 19.9432H59.0471C58.996 19.7443 58.8824 19.5682 58.7062 19.4148C58.532 19.2595 58.2971 19.1818 58.0017 19.1818C57.7403 19.1818 57.5111 19.25 57.3142 19.3864C57.1191 19.5208 56.9666 19.7112 56.8568 19.9574C56.7488 20.2017 56.6949 20.4886 56.6949 20.8182C56.6949 21.1553 56.7479 21.4489 56.8539 21.6989C56.9619 21.9489 57.1134 22.143 57.3085 22.2812C57.5055 22.4195 57.7365 22.4886 58.0017 22.4886C58.1759 22.4886 58.3341 22.4583 58.4761 22.3977C58.6182 22.3371 58.7384 22.25 58.8369 22.1364C58.9354 22.0227 59.0055 21.8864 59.0471 21.7273H59.7176C59.6797 21.9848 59.586 22.2169 59.4363 22.4233C59.2886 22.6278 59.0926 22.7907 58.8483 22.9119C58.6058 23.0312 58.3236 23.0909 58.0017 23.0909ZM60.514 19.2614V18.6364H64.0594V19.2614H62.6276V23H61.9571V19.2614H60.514ZM66.8004 23.0909C66.3799 23.0909 66.0172 22.9981 65.7123 22.8125C65.4093 22.625 65.1754 22.3636 65.0106 22.0284C64.8477 21.6913 64.7663 21.2992 64.7663 20.8523C64.7663 20.4053 64.8477 20.0114 65.0106 19.6705C65.1754 19.3277 65.4045 19.0606 65.6981 18.8693C65.9935 18.6761 66.3382 18.5795 66.7322 18.5795C66.9595 18.5795 67.1839 18.6174 67.4055 18.6932C67.6271 18.7689 67.8288 18.892 68.0106 19.0625C68.1924 19.2311 68.3373 19.4545 68.4453 19.733C68.5532 20.0114 68.6072 20.3542 68.6072 20.7614V21.0455H65.2435V20.4659H67.9254C67.9254 20.2197 67.8761 20 67.7776 19.8068C67.681 19.6136 67.5428 19.4612 67.3629 19.3494C67.1848 19.2377 66.9746 19.1818 66.7322 19.1818C66.4651 19.1818 66.2341 19.2481 66.039 19.3807C65.8458 19.5114 65.6971 19.6818 65.593 19.892C65.4888 20.1023 65.4367 20.3277 65.4367 20.5682V20.9545C65.4367 21.2841 65.4935 21.5634 65.6072 21.7926C65.7227 22.0199 65.8828 22.1932 66.0873 22.3125C66.2918 22.4299 66.5295 22.4886 66.8004 22.4886C66.9765 22.4886 67.1356 22.464 67.2776 22.4148C67.4216 22.3636 67.5456 22.2879 67.6498 22.1875C67.754 22.0852 67.8345 21.9583 67.8913 21.8068L68.539 21.9886C68.4708 22.2083 68.3562 22.4015 68.1953 22.5682C68.0343 22.733 67.8354 22.8617 67.5987 22.9545C67.3619 23.0455 67.0958 23.0909 66.8004 23.0909ZM69.7871 24.6364V18.6364H70.4348V19.3295H70.5143C70.5636 19.2538 70.6318 19.1572 70.7189 19.0398C70.8079 18.9205 70.9348 18.8144 71.0996 18.7216C71.2662 18.6269 71.4916 18.5795 71.7757 18.5795C72.1431 18.5795 72.467 18.6714 72.7473 18.8551C73.0276 19.0388 73.2464 19.2992 73.4036 19.6364C73.5607 19.9735 73.6393 20.3712 73.6393 20.8295C73.6393 21.2917 73.5607 21.6922 73.4036 22.0312C73.2464 22.3684 73.0286 22.6297 72.7501 22.8153C72.4717 22.9991 72.1507 23.0909 71.7871 23.0909C71.5068 23.0909 71.2823 23.0445 71.1138 22.9517C70.9452 22.857 70.8155 22.75 70.7246 22.6307C70.6337 22.5095 70.5636 22.4091 70.5143 22.3295H70.4575V24.6364H69.7871ZM70.4462 20.8182C70.4462 21.1477 70.4945 21.4384 70.5911 21.6903C70.6876 21.9403 70.8287 22.1364 71.0143 22.2784C71.2 22.4186 71.4272 22.4886 71.6962 22.4886C71.9765 22.4886 72.2104 22.4148 72.3979 22.267C72.5873 22.1174 72.7293 21.9167 72.824 21.6648C72.9206 21.411 72.9689 21.1288 72.9689 20.8182C72.9689 20.5114 72.9215 20.2348 72.8268 19.9886C72.734 19.7405 72.5929 19.5445 72.4036 19.4006C72.2161 19.2547 71.9803 19.1818 71.6962 19.1818C71.4234 19.1818 71.1943 19.2509 71.0087 19.3892C70.8231 19.5256 70.6829 19.7169 70.5882 19.9631C70.4935 20.2074 70.4462 20.4924 70.4462 20.8182ZM76.5948 23.0909C76.1857 23.0909 75.8334 22.9943 75.538 22.8011C75.2425 22.608 75.0153 22.3419 74.8562 22.0028C74.6971 21.6638 74.6175 21.2765 74.6175 20.8409C74.6175 20.3977 74.699 20.0066 74.8618 19.6676C75.0266 19.3267 75.2558 19.0606 75.5493 18.8693C75.8448 18.6761 76.1895 18.5795 76.5834 18.5795C76.8903 18.5795 77.1668 18.6364 77.413 18.75C77.6592 18.8636 77.8609 19.0227 78.0181 19.2273C78.1753 19.4318 78.2728 19.6705 78.3107 19.9432H77.6403C77.5891 19.7443 77.4755 19.5682 77.2993 19.4148C77.1251 19.2595 76.8903 19.1818 76.5948 19.1818C76.3334 19.1818 76.1043 19.25 75.9073 19.3864C75.7122 19.5208 75.5598 19.7112 75.4499 19.9574C75.342 20.2017 75.288 20.4886 75.288 20.8182C75.288 21.1553 75.341 21.4489 75.4471 21.6989C75.555 21.9489 75.7065 22.143 75.9016 22.2812C76.0986 22.4195 76.3296 22.4886 76.5948 22.4886C76.769 22.4886 76.9272 22.4583 77.0692 22.3977C77.2113 22.3371 77.3315 22.25 77.43 22.1364C77.5285 22.0227 77.5986 21.8864 77.6403 21.7273H78.3107C78.2728 21.9848 78.1791 22.2169 78.0295 22.4233C77.8817 22.6278 77.6857 22.7907 77.4414 22.9119C77.199 23.0312 76.9168 23.0909 76.5948 23.0909ZM79.4508 23V18.6364H80.1213V20.5341H80.5645L82.1326 18.6364H82.9963L81.2349 20.7386L83.019 23H82.1554L80.7236 21.1591H80.1213V23H79.4508ZM85.1918 23.1023C84.9153 23.1023 84.6643 23.0502 84.4389 22.946C84.2136 22.84 84.0346 22.6875 83.902 22.4886C83.7694 22.2879 83.7032 22.0455 83.7032 21.7614C83.7032 21.5114 83.7524 21.3087 83.8509 21.1534C83.9494 20.9962 84.081 20.8731 84.2458 20.7841C84.4105 20.6951 84.5924 20.6288 84.7912 20.5852C84.992 20.5398 85.1937 20.5038 85.3963 20.4773C85.6615 20.4432 85.8764 20.4176 86.0412 20.4006C86.2079 20.3816 86.3291 20.3504 86.4049 20.3068C86.4825 20.2633 86.5213 20.1875 86.5213 20.0795V20.0568C86.5213 19.7765 86.4446 19.5587 86.2912 19.4034C86.1397 19.2481 85.9096 19.1705 85.6009 19.1705C85.2808 19.1705 85.0299 19.2405 84.848 19.3807C84.6662 19.5208 84.5384 19.6705 84.4645 19.8295L83.8282 19.6023C83.9418 19.3371 84.0933 19.1307 84.2827 18.983C84.474 18.8333 84.6823 18.7292 84.9077 18.6705C85.135 18.6098 85.3585 18.5795 85.5782 18.5795C85.7183 18.5795 85.8793 18.5966 86.0611 18.6307C86.2448 18.6629 86.4219 18.7301 86.5924 18.8324C86.7647 18.9347 86.9077 19.089 87.0213 19.2955C87.135 19.5019 87.1918 19.7784 87.1918 20.125V23H86.5213V22.4091H86.4872C86.4418 22.5038 86.366 22.6051 86.26 22.7131C86.1539 22.821 86.0128 22.9129 85.8367 22.9886C85.6605 23.0644 85.4456 23.1023 85.1918 23.1023ZM85.2941 22.5C85.5592 22.5 85.7827 22.4479 85.9645 22.3438C86.1482 22.2396 86.2865 22.1051 86.3793 21.9403C86.474 21.7756 86.5213 21.6023 86.5213 21.4205V20.8068C86.4929 20.8409 86.4304 20.8722 86.3338 20.9006C86.2391 20.9271 86.1293 20.9508 86.0043 20.9716C85.8812 20.9905 85.7609 21.0076 85.6435 21.0227C85.528 21.036 85.4342 21.0473 85.3622 21.0568C85.188 21.0795 85.0251 21.1165 84.8736 21.1676C84.724 21.2169 84.6028 21.2917 84.51 21.392C84.4191 21.4905 84.3736 21.625 84.3736 21.7955C84.3736 22.0284 84.4598 22.2045 84.6321 22.3239C84.8064 22.4413 85.027 22.5 85.2941 22.5ZM91.2005 23V19.25H90.0414C89.7801 19.25 89.5746 19.3106 89.4249 19.4318C89.2753 19.553 89.2005 19.7197 89.2005 19.9318C89.2005 20.1402 89.2677 20.304 89.4022 20.4233C89.5386 20.5426 89.7251 20.6023 89.9619 20.6023H91.371V21.2273H89.9619C89.6664 21.2273 89.4117 21.1752 89.1977 21.071C88.9837 20.9669 88.8189 20.8182 88.7034 20.625C88.5878 20.4299 88.5301 20.1989 88.5301 19.9318C88.5301 19.6629 88.5907 19.4318 88.7119 19.2386C88.8331 19.0455 89.0064 18.8968 89.2318 18.7926C89.459 18.6884 89.7289 18.6364 90.0414 18.6364H91.8369V23H91.2005ZM88.2914 23L89.5301 20.8295H90.2573L89.0187 23H88.2914Z" fill="white"/>
<path d="M2.60369 3.27273V12H0.758523V3.27273H2.60369ZM4.05362 12V10.9176L7.25817 6.95028V6.90341H4.16442V5.45455H9.44425V6.63494L6.43572 10.5043V10.5511H9.55504V12H4.05362ZM10.9432 12V5.45455H12.6733V6.60938H12.75C12.8864 6.22585 13.1136 5.9233 13.4318 5.7017C13.75 5.48011 14.1307 5.36932 14.5739 5.36932C15.0227 5.36932 15.4048 5.48153 15.7202 5.70597C16.0355 5.92756 16.2457 6.22869 16.3509 6.60938H16.419C16.5526 6.23438 16.794 5.93466 17.1435 5.71023C17.4957 5.48295 17.9119 5.36932 18.392 5.36932C19.0028 5.36932 19.4986 5.56392 19.8793 5.95312C20.2628 6.33949 20.4545 6.88778 20.4545 7.59801V12H18.6435V7.95597C18.6435 7.59233 18.5469 7.3196 18.3537 7.13778C18.1605 6.95597 17.919 6.86506 17.6293 6.86506C17.2997 6.86506 17.0426 6.97017 16.858 7.1804C16.6733 7.38778 16.581 7.66193 16.581 8.00284V12H14.821V7.91761C14.821 7.59659 14.7287 7.34091 14.544 7.15057C14.3622 6.96023 14.1222 6.86506 13.8239 6.86506C13.6222 6.86506 13.4403 6.91619 13.2784 7.01847C13.1193 7.1179 12.9929 7.25852 12.8991 7.44034C12.8054 7.61932 12.7585 7.82955 12.7585 8.07102V12H10.9432ZM23.755 12.1236C23.3374 12.1236 22.9652 12.0511 22.6385 11.9062C22.3118 11.7585 22.0533 11.5412 21.8629 11.2543C21.6754 10.9645 21.5817 10.6037 21.5817 10.1719C21.5817 9.80824 21.6484 9.50284 21.782 9.25568C21.9155 9.00852 22.0973 8.80966 22.3274 8.65909C22.5575 8.50852 22.8189 8.39489 23.1115 8.31818C23.407 8.24148 23.7166 8.1875 24.0405 8.15625C24.4212 8.11648 24.728 8.07955 24.9609 8.04545C25.1939 8.00852 25.3629 7.95455 25.468 7.88352C25.5732 7.8125 25.6257 7.70739 25.6257 7.56818V7.54261C25.6257 7.27273 25.5405 7.06392 25.37 6.91619C25.2024 6.76847 24.9638 6.6946 24.6541 6.6946C24.3274 6.6946 24.0675 6.76705 23.8743 6.91193C23.6811 7.05398 23.5533 7.23295 23.4908 7.44886L21.8118 7.3125C21.897 6.91477 22.0646 6.57102 22.3146 6.28125C22.5646 5.98864 22.8871 5.7642 23.282 5.60795C23.6797 5.44886 24.1399 5.36932 24.6626 5.36932C25.0263 5.36932 25.3743 5.41193 25.7067 5.49716C26.0419 5.58239 26.3388 5.71449 26.5973 5.89347C26.8587 6.07244 27.0646 6.30256 27.2152 6.58381C27.3658 6.86222 27.4411 7.19602 27.4411 7.58523V12H25.7195V11.0923H25.6683C25.5632 11.2969 25.4226 11.4773 25.2464 11.6335C25.0703 11.7869 24.8587 11.9077 24.6115 11.9957C24.3643 12.081 24.0788 12.1236 23.755 12.1236ZM24.2749 10.8707C24.5419 10.8707 24.7777 10.8182 24.9822 10.7131C25.1868 10.6051 25.3473 10.4602 25.4638 10.2784C25.5803 10.0966 25.6385 9.89062 25.6385 9.66051V8.96591C25.5817 9.00284 25.5036 9.03693 25.4041 9.06818C25.3075 9.09659 25.1982 9.12358 25.076 9.14915C24.9538 9.17187 24.8317 9.19318 24.7095 9.21307C24.5874 9.23011 24.4766 9.24574 24.3771 9.25994C24.1641 9.29119 23.978 9.34091 23.8189 9.40909C23.6598 9.47727 23.5362 9.5696 23.4482 9.68608C23.3601 9.79972 23.3161 9.94176 23.3161 10.1122C23.3161 10.3594 23.4055 10.5483 23.5845 10.679C23.7663 10.8068 23.9964 10.8707 24.2749 10.8707ZM28.8494 12V5.45455H30.6648V12H28.8494ZM29.7614 4.6108C29.4915 4.6108 29.2599 4.52131 29.0668 4.34233C28.8764 4.16051 28.7812 3.94318 28.7812 3.69034C28.7812 3.44034 28.8764 3.22585 29.0668 3.04688C29.2599 2.86506 29.4915 2.77415 29.7614 2.77415C30.0313 2.77415 30.2614 2.86506 30.4517 3.04688C30.6449 3.22585 30.7415 3.44034 30.7415 3.69034C30.7415 3.94318 30.6449 4.16051 30.4517 4.34233C30.2614 4.52131 30.0313 4.6108 29.7614 4.6108ZM33.9343 3.27273V12H32.119V3.27273H33.9343ZM38.3459 12.1278C37.6839 12.1278 37.1115 11.9872 36.6286 11.706C36.1484 11.4219 35.7777 11.027 35.5163 10.5213C35.255 10.0128 35.1243 9.4233 35.1243 8.75284C35.1243 8.0767 35.255 7.4858 35.5163 6.98011C35.7777 6.47159 36.1484 6.0767 36.6286 5.79545C37.1115 5.51136 37.6839 5.36932 38.3459 5.36932C39.0078 5.36932 39.5788 5.51136 40.0589 5.79545C40.5419 6.0767 40.9141 6.47159 41.1754 6.98011C41.4368 7.4858 41.5675 8.0767 41.5675 8.75284C41.5675 9.4233 41.4368 10.0128 41.1754 10.5213C40.9141 11.027 40.5419 11.4219 40.0589 11.706C39.5788 11.9872 39.0078 12.1278 38.3459 12.1278ZM38.3544 10.7216C38.6555 10.7216 38.907 10.6364 39.1087 10.4659C39.3104 10.2926 39.4624 10.0568 39.5646 9.75852C39.6697 9.46023 39.7223 9.12074 39.7223 8.74006C39.7223 8.35938 39.6697 8.01989 39.5646 7.72159C39.4624 7.4233 39.3104 7.1875 39.1087 7.0142C38.907 6.84091 38.6555 6.75426 38.3544 6.75426C38.0504 6.75426 37.7947 6.84091 37.5874 7.0142C37.3828 7.1875 37.228 7.4233 37.1229 7.72159C37.0206 8.01989 36.9695 8.35938 36.9695 8.74006C36.9695 9.12074 37.0206 9.46023 37.1229 9.75852C37.228 10.0568 37.3828 10.2926 37.5874 10.4659C37.7947 10.6364 38.0504 10.7216 38.3544 10.7216ZM48.6392 5.45455L46.3509 12H44.3054L42.017 5.45455H43.9347L45.294 10.1378H45.3622L46.7173 5.45455H48.6392ZM53.6175 12V13.3764H47.886V12H53.6175ZM56.7496 12.1065C56.2525 12.1065 55.8022 11.9787 55.3988 11.723C54.9982 11.4645 54.68 11.0852 54.4442 10.5852C54.2113 10.0824 54.0948 9.46591 54.0948 8.7358C54.0948 7.9858 54.2156 7.36222 54.457 6.86506C54.6985 6.36506 55.0195 5.99148 55.4201 5.74432C55.8235 5.49432 56.2653 5.36932 56.7454 5.36932C57.1119 5.36932 57.4173 5.43182 57.6616 5.55682C57.9087 5.67898 58.1076 5.83239 58.2582 6.01705C58.4116 6.19886 58.5281 6.37784 58.6076 6.55398H58.663V3.27273H60.4741V12H58.6843V10.9517H58.6076C58.5224 11.1335 58.4016 11.3139 58.2454 11.4929C58.092 11.669 57.8917 11.8153 57.6445 11.9318C57.4002 12.0483 57.1019 12.1065 56.7496 12.1065ZM57.3249 10.6619C57.6175 10.6619 57.8647 10.5824 58.0664 10.4233C58.271 10.2614 58.4272 10.0355 58.5352 9.74574C58.646 9.45597 58.7013 9.11648 58.7013 8.72727C58.7013 8.33807 58.6474 8 58.5394 7.71307C58.4315 7.42614 58.2752 7.20455 58.0707 7.0483C57.8661 6.89205 57.6175 6.81392 57.3249 6.81392C57.0266 6.81392 56.7752 6.89489 56.5707 7.05682C56.3661 7.21875 56.2113 7.44318 56.1062 7.73011C56.0011 8.01705 55.9485 8.34943 55.9485 8.72727C55.9485 9.10795 56.0011 9.4446 56.1062 9.73722C56.2141 10.027 56.369 10.2543 56.5707 10.419C56.7752 10.581 57.0266 10.6619 57.3249 10.6619ZM64.9496 12.1278C64.2763 12.1278 63.6967 11.9915 63.2109 11.7188C62.728 11.4432 62.3558 11.054 62.0945 10.5511C61.8331 10.0455 61.7024 9.44744 61.7024 8.7571C61.7024 8.08381 61.8331 7.4929 62.0945 6.98438C62.3558 6.47585 62.7237 6.07955 63.1982 5.79545C63.6754 5.51136 64.2351 5.36932 64.8771 5.36932C65.3089 5.36932 65.7109 5.43892 66.0831 5.57812C66.4581 5.71449 66.7848 5.92045 67.0632 6.19602C67.3445 6.47159 67.5632 6.81818 67.7195 7.2358C67.8757 7.65057 67.9538 8.13636 67.9538 8.69318V9.19176H62.4268V8.06676H66.245C66.245 7.8054 66.1882 7.57386 66.0746 7.37216C65.9609 7.17045 65.8033 7.01278 65.6016 6.89915C65.4027 6.78267 65.1712 6.72443 64.907 6.72443C64.6314 6.72443 64.3871 6.78835 64.174 6.91619C63.9638 7.04119 63.799 7.21023 63.6797 7.4233C63.5604 7.63352 63.4993 7.8679 63.4964 8.12642V9.19602C63.4964 9.51989 63.5561 9.79972 63.6754 10.0355C63.7976 10.2713 63.9695 10.4531 64.1911 10.581C64.4126 10.7088 64.6754 10.7727 64.9794 10.7727C65.1811 10.7727 65.3658 10.7443 65.5334 10.6875C65.701 10.6307 65.8445 10.5455 65.9638 10.4318C66.0831 10.3182 66.174 10.179 66.2365 10.0142L67.9155 10.125C67.8303 10.5284 67.6555 10.8807 67.3913 11.1818C67.13 11.4801 66.7919 11.7131 66.3771 11.8807C65.9652 12.0455 65.4893 12.1278 64.9496 12.1278ZM74.5845 7.32102L72.9226 7.4233C72.8942 7.28125 72.8331 7.15341 72.7393 7.03977C72.6456 6.9233 72.522 6.83097 72.3686 6.76278C72.218 6.69176 72.0376 6.65625 71.8274 6.65625C71.5462 6.65625 71.3089 6.71591 71.1158 6.83523C70.9226 6.9517 70.826 7.10795 70.826 7.30398C70.826 7.46023 70.8885 7.59233 71.0135 7.70028C71.1385 7.80824 71.353 7.89489 71.657 7.96023L72.8416 8.19886C73.478 8.32955 73.9524 8.53977 74.2649 8.82955C74.5774 9.11932 74.7337 9.5 74.7337 9.97159C74.7337 10.4006 74.6072 10.777 74.3544 11.1009C74.1044 11.4247 73.7607 11.6776 73.3232 11.8594C72.8885 12.0384 72.3871 12.1278 71.8189 12.1278C70.9524 12.1278 70.2621 11.9474 69.7479 11.5866C69.2365 11.223 68.9368 10.7287 68.8487 10.1037L70.6342 10.0099C70.6882 10.2741 70.8189 10.4759 71.0263 10.6151C71.2337 10.7514 71.4993 10.8196 71.8232 10.8196C72.1413 10.8196 72.397 10.7585 72.5902 10.6364C72.7862 10.5114 72.8857 10.3509 72.8885 10.1548C72.8857 9.99006 72.8161 9.85511 72.6797 9.75C72.5433 9.64205 72.3331 9.55966 72.049 9.50284L70.9155 9.27699C70.2763 9.14915 69.8004 8.92756 69.4879 8.61222C69.1783 8.29687 69.0234 7.89489 69.0234 7.40625C69.0234 6.9858 69.1371 6.62358 69.3643 6.3196C69.5945 6.01562 69.9169 5.78125 70.3317 5.61648C70.7493 5.4517 71.2379 5.36932 71.7976 5.36932C72.6243 5.36932 73.2749 5.54403 73.7493 5.89347C74.2266 6.2429 74.505 6.71875 74.5845 7.32102ZM75.8768 12V5.45455H77.6921V12H75.8768ZM76.7887 4.6108C76.5188 4.6108 76.2873 4.52131 76.0941 4.34233C75.9038 4.16051 75.8086 3.94318 75.8086 3.69034C75.8086 3.44034 75.9038 3.22585 76.0941 3.04688C76.2873 2.86506 76.5188 2.77415 76.7887 2.77415C77.0586 2.77415 77.2887 2.86506 77.479 3.04688C77.6722 3.22585 77.7688 3.44034 77.7688 3.69034C77.7688 3.94318 77.6722 4.16051 77.479 4.34233C77.2887 4.52131 77.0586 4.6108 76.7887 4.6108ZM82.0952 14.5909C81.5071 14.5909 81.0028 14.5099 80.5824 14.348C80.1648 14.1889 79.8324 13.9716 79.5852 13.696C79.3381 13.4205 79.1776 13.1108 79.1037 12.767L80.7827 12.5412C80.8338 12.6719 80.9148 12.794 81.0256 12.9077C81.1364 13.0213 81.2827 13.1122 81.4645 13.1804C81.6491 13.2514 81.8736 13.2869 82.1378 13.2869C82.5327 13.2869 82.858 13.1903 83.1136 12.9972C83.3722 12.8068 83.5014 12.4872 83.5014 12.0384V10.8409H83.4247C83.3452 11.0227 83.2259 11.1946 83.0668 11.3565C82.9077 11.5185 82.7031 11.6506 82.4531 11.7528C82.2031 11.8551 81.9048 11.9062 81.5582 11.9062C81.0668 11.9062 80.6193 11.7926 80.2159 11.5653C79.8153 11.3352 79.4957 10.9844 79.2571 10.5128C79.0213 10.0384 78.9034 9.43892 78.9034 8.71449C78.9034 7.97301 79.0241 7.35369 79.2656 6.85653C79.5071 6.35937 79.8281 5.98722 80.2287 5.74006C80.6321 5.4929 81.0739 5.36932 81.554 5.36932C81.9205 5.36932 82.2273 5.43182 82.4744 5.55682C82.7216 5.67898 82.9205 5.83239 83.071 6.01705C83.2244 6.19886 83.3423 6.37784 83.4247 6.55398H83.4929V5.45455H85.2955V12.0639C85.2955 12.6207 85.1591 13.0866 84.8864 13.4616C84.6136 13.8366 84.2358 14.1179 83.7528 14.3054C83.2727 14.4957 82.7202 14.5909 82.0952 14.5909ZM82.1335 10.5426C82.4261 10.5426 82.6733 10.4702 82.875 10.3253C83.0795 10.1776 83.2358 9.96733 83.3438 9.6946C83.4545 9.41903 83.5099 9.08949 83.5099 8.70597C83.5099 8.32244 83.456 7.99006 83.348 7.70881C83.2401 7.42472 83.0838 7.20455 82.8793 7.0483C82.6747 6.89205 82.4261 6.81392 82.1335 6.81392C81.8352 6.81392 81.5838 6.89489 81.3793 7.05682C81.1747 7.21591 81.0199 7.4375 80.9148 7.72159C80.8097 8.00568 80.7571 8.33381 80.7571 8.70597C80.7571 9.08381 80.8097 9.41051 80.9148 9.68608C81.0227 9.95881 81.1776 10.1705 81.3793 10.321C81.5838 10.4687 81.8352 10.5426 82.1335 10.5426ZM88.5554 8.21591V12H86.7401V5.45455H88.4702V6.60938H88.5469C88.6918 6.22869 88.9347 5.92756 89.2756 5.70597C89.6165 5.48153 90.0298 5.36932 90.5156 5.36932C90.9702 5.36932 91.3665 5.46875 91.7045 5.66761C92.0426 5.86648 92.3054 6.15057 92.4929 6.51989C92.6804 6.88636 92.7741 7.32386 92.7741 7.83239V12H90.9588V8.15625C90.9616 7.75568 90.8594 7.44318 90.652 7.21875C90.4446 6.99148 90.1591 6.87784 89.7955 6.87784C89.5511 6.87784 89.3352 6.9304 89.1477 7.03551C88.9631 7.14062 88.8182 7.29403 88.7131 7.49574C88.6108 7.6946 88.5582 7.93466 88.5554 8.21591Z" fill="white"/>
</svg>
