<svg width="203" height="53" viewBox="0 0 203 53" fill="none" xmlns="http://www.w3.org/2000/svg">
<path d="M5.36932 49.2045C4.44886 49.2045 3.65625 48.9872 2.99148 48.5526C2.3267 48.1179 1.81534 47.5192 1.45739 46.7564C1.09943 45.9936 0.920455 45.1222 0.920455 44.142C0.920455 43.1449 1.10369 42.2649 1.47017 41.5021C1.84091 40.7351 2.35653 40.1364 3.01705 39.706C3.68182 39.2713 4.45739 39.054 5.34375 39.054C6.03409 39.054 6.65625 39.1818 7.21023 39.4375C7.7642 39.6932 8.21804 40.0511 8.57173 40.5114C8.92543 40.9716 9.14489 41.5085 9.23011 42.1222H7.72159C7.60653 41.6747 7.35085 41.2784 6.95455 40.9332C6.5625 40.5838 6.03409 40.4091 5.36932 40.4091C4.78125 40.4091 4.26563 40.5625 3.82244 40.8693C3.38352 41.1719 3.04048 41.6001 2.79332 42.1541C2.55043 42.7038 2.42898 43.3494 2.42898 44.0909C2.42898 44.8494 2.5483 45.5099 2.78693 46.0724C3.02983 46.6349 3.37074 47.0717 3.80966 47.3828C4.25284 47.6939 4.77273 47.8494 5.36932 47.8494C5.76136 47.8494 6.11719 47.7812 6.43679 47.6449C6.75639 47.5085 7.02699 47.3125 7.24858 47.0568C7.47017 46.8011 7.62784 46.4943 7.72159 46.1364H9.23011C9.14489 46.7159 8.93395 47.2379 8.5973 47.7024C8.26492 48.1626 7.82386 48.5291 7.27415 48.8018C6.72869 49.0703 6.09375 49.2045 5.36932 49.2045ZM10.6619 40.5881V39.1818H18.6392V40.5881H15.4176V49H13.9091V40.5881H10.6619ZM24.3185 49.2045C23.4322 49.2045 22.6545 48.9936 21.9854 48.5717C21.3207 48.1499 20.8008 47.5597 20.4258 46.8011C20.055 46.0426 19.8697 45.1562 19.8697 44.142C19.8697 43.1193 20.055 42.2266 20.4258 41.4638C20.8008 40.701 21.3207 40.1087 21.9854 39.6868C22.6545 39.2649 23.4322 39.054 24.3185 39.054C25.2049 39.054 25.9805 39.2649 26.6452 39.6868C27.3143 40.1087 27.8342 40.701 28.2049 41.4638C28.5799 42.2266 28.7674 43.1193 28.7674 44.142C28.7674 45.1562 28.5799 46.0426 28.2049 46.8011C27.8342 47.5597 27.3143 48.1499 26.6452 48.5717C25.9805 48.9936 25.2049 49.2045 24.3185 49.2045ZM24.3185 47.8494C24.9918 47.8494 25.5458 47.6768 25.9805 47.3317C26.4151 46.9865 26.7369 46.5327 26.9457 45.9702C27.1545 45.4077 27.2589 44.7983 27.2589 44.142C27.2589 43.4858 27.1545 42.8743 26.9457 42.3075C26.7369 41.7408 26.4151 41.2827 25.9805 40.9332C25.5458 40.5838 24.9918 40.4091 24.3185 40.4091C23.6452 40.4091 23.0913 40.5838 22.6566 40.9332C22.2219 41.2827 21.9002 41.7408 21.6914 42.3075C21.4826 42.8743 21.3782 43.4858 21.3782 44.142C21.3782 44.7983 21.4826 45.4077 21.6914 45.9702C21.9002 46.5327 22.2219 46.9865 22.6566 47.3317C23.0913 47.6768 23.6452 47.8494 24.3185 47.8494ZM30.2008 49V47.5938H30.5588C30.8528 47.5938 31.0978 47.5362 31.2939 47.4212C31.4899 47.3018 31.6475 47.0952 31.7669 46.8011C31.8904 46.5028 31.9842 46.0895 32.0481 45.5611C32.1163 45.0284 32.1653 44.3509 32.1951 43.5284L32.3741 39.1818H38.9196V49H37.411V40.5881H33.8059L33.6525 44.0909C33.6184 44.8963 33.546 45.6058 33.4352 46.2195C33.3287 46.8288 33.1646 47.3402 32.943 47.7536C32.7257 48.1669 32.4359 48.478 32.0737 48.6868C31.7115 48.8956 31.2576 49 30.7122 49H30.2008ZM47.5936 49V40.5625H44.9856C44.3975 40.5625 43.9352 40.6989 43.5985 40.9716C43.2619 41.2443 43.0936 41.6193 43.0936 42.0966C43.0936 42.5653 43.2449 42.9339 43.5474 43.2024C43.8542 43.4709 44.274 43.6051 44.8066 43.6051H47.9771V45.0114H44.8066C44.1419 45.0114 43.5687 44.8942 43.0872 44.6598C42.6056 44.4254 42.2349 44.0909 41.975 43.6562C41.715 43.2173 41.585 42.6974 41.585 42.0966C41.585 41.4915 41.7214 40.9716 41.9941 40.5369C42.2669 40.1023 42.6568 39.7678 43.1639 39.5334C43.6752 39.299 44.2825 39.1818 44.9856 39.1818H49.0254V49H47.5936ZM41.0481 49L43.835 44.1165H45.4714L42.6845 49H41.0481ZM51.7947 52.6818V39.1818H53.2521V40.7415H53.4311C53.5419 40.571 53.6953 40.3537 53.8913 40.0895C54.0916 39.821 54.3771 39.5824 54.7479 39.3736C55.1229 39.1605 55.63 39.054 56.2692 39.054C57.0959 39.054 57.8246 39.2607 58.4553 39.674C59.0859 40.0874 59.5781 40.6733 59.9318 41.4318C60.2855 42.1903 60.4624 43.0852 60.4624 44.1165C60.4624 45.1562 60.2855 46.0575 59.9318 46.8203C59.5781 47.5788 59.0881 48.1669 58.4616 48.5845C57.8352 48.9979 57.1129 49.2045 56.2947 49.2045C55.6641 49.2045 55.1591 49.1001 54.7798 48.8913C54.4006 48.6783 54.1087 48.4375 53.9041 48.169C53.6996 47.8963 53.5419 47.6705 53.4311 47.4915H53.3033V52.6818H51.7947ZM53.2777 44.0909C53.2777 44.8324 53.3864 45.4865 53.6037 46.0533C53.821 46.6158 54.1385 47.0568 54.5561 47.3764C54.9737 47.6918 55.4851 47.8494 56.0902 47.8494C56.7209 47.8494 57.2472 47.6832 57.669 47.3509C58.0952 47.0142 58.4148 46.5625 58.6278 45.9957C58.8452 45.4247 58.9538 44.7898 58.9538 44.0909C58.9538 43.4006 58.8473 42.7784 58.6342 42.2244C58.4254 41.6662 58.108 41.2251 57.6818 40.9013C57.2599 40.5732 56.7294 40.4091 56.0902 40.4091C55.4766 40.4091 54.9609 40.5646 54.5433 40.8757C54.1257 41.1825 53.8104 41.6129 53.5973 42.1669C53.3842 42.7166 53.2777 43.358 53.2777 44.0909ZM69.3345 43.4006V44.8068H63.9141V43.4006H69.3345ZM64.272 39.1818V49H62.7635V39.1818H64.272ZM70.4851 39.1818V49H68.9766V39.1818H70.4851ZM76.1293 49.2301C75.5071 49.2301 74.9425 49.1129 74.4354 48.8786C73.9283 48.6399 73.5256 48.2969 73.2273 47.8494C72.929 47.3977 72.7798 46.8523 72.7798 46.2131C72.7798 45.6506 72.8906 45.1946 73.1122 44.8452C73.3338 44.4915 73.63 44.2145 74.0007 44.0142C74.3714 43.8139 74.7805 43.6648 75.228 43.5668C75.6797 43.4645 76.1335 43.3835 76.5895 43.3239C77.1861 43.2472 77.6697 43.1896 78.0405 43.1513C78.4155 43.1087 78.6882 43.0384 78.8587 42.9403C79.0334 42.8423 79.1207 42.6719 79.1207 42.429V42.3778C79.1207 41.7472 78.9482 41.2571 78.603 40.9077C78.2621 40.5582 77.7443 40.3835 77.0497 40.3835C76.3295 40.3835 75.7649 40.5412 75.3558 40.8565C74.9467 41.1719 74.6591 41.5085 74.4929 41.8665L73.0611 41.3551C73.3168 40.7585 73.6577 40.294 74.0838 39.9616C74.5142 39.625 74.983 39.3906 75.4901 39.2585C76.0014 39.1222 76.5043 39.054 76.9986 39.054C77.3139 39.054 77.6761 39.0923 78.0852 39.169C78.4986 39.2415 78.897 39.3928 79.2805 39.6229C79.6683 39.853 79.9901 40.2003 80.2457 40.6648C80.5014 41.1293 80.6293 41.7514 80.6293 42.5312V49H79.1207V47.6705H79.044C78.9418 47.8835 78.7713 48.1115 78.5327 48.3544C78.294 48.5973 77.9766 48.804 77.5803 48.9744C77.1839 49.1449 76.7003 49.2301 76.1293 49.2301ZM76.3594 47.875C76.956 47.875 77.4588 47.7578 77.8679 47.5234C78.2813 47.2891 78.5923 46.9865 78.8011 46.6158C79.0142 46.245 79.1207 45.8551 79.1207 45.446V44.0653C79.0568 44.142 78.9162 44.2124 78.6989 44.2763C78.4858 44.3359 78.2386 44.3892 77.9574 44.4361C77.6804 44.4787 77.4098 44.517 77.1456 44.5511C76.8857 44.581 76.6747 44.6065 76.5128 44.6278C76.1207 44.679 75.7543 44.7621 75.4134 44.8771C75.0767 44.9879 74.804 45.1562 74.5952 45.3821C74.3906 45.6037 74.2884 45.9062 74.2884 46.2898C74.2884 46.8139 74.4822 47.2102 74.87 47.4787C75.2621 47.7429 75.7585 47.875 76.3594 47.875ZM89.2889 49V40.5625H86.6809C86.0929 40.5625 85.6305 40.6989 85.2939 40.9716C84.9572 41.2443 84.7889 41.6193 84.7889 42.0966C84.7889 42.5653 84.9402 42.9339 85.2427 43.2024C85.5495 43.4709 85.9693 43.6051 86.502 43.6051H89.6724V45.0114H86.502C85.8372 45.0114 85.264 44.8942 84.7825 44.6598C84.301 44.4254 83.9302 44.0909 83.6703 43.6562C83.4103 43.2173 83.2804 42.6974 83.2804 42.0966C83.2804 41.4915 83.4167 40.9716 83.6895 40.5369C83.9622 40.1023 84.3521 39.7678 84.8592 39.5334C85.3706 39.299 85.9778 39.1818 86.6809 39.1818H90.7207V49H89.2889ZM82.7434 49L85.5304 44.1165H87.1667L84.3798 49H82.7434ZM103.922 46.9545L107.348 39.1818H108.78L104.536 49H103.308L99.1406 39.1818H100.547L103.922 46.9545ZM100.061 39.1818V49H98.5526V39.1818H100.061ZM107.783 49V39.1818H109.291V49H107.783ZM114.942 49.2301C114.32 49.2301 113.755 49.1129 113.248 48.8786C112.741 48.6399 112.338 48.2969 112.04 47.8494C111.741 47.3977 111.592 46.8523 111.592 46.2131C111.592 45.6506 111.703 45.1946 111.925 44.8452C112.146 44.4915 112.442 44.2145 112.813 44.0142C113.184 43.8139 113.593 43.6648 114.04 43.5668C114.492 43.4645 114.946 43.3835 115.402 43.3239C115.999 43.2472 116.482 43.1896 116.853 43.1513C117.228 43.1087 117.501 43.0384 117.671 42.9403C117.846 42.8423 117.933 42.6719 117.933 42.429V42.3778C117.933 41.7472 117.761 41.2571 117.415 40.9077C117.075 40.5582 116.557 40.3835 115.862 40.3835C115.142 40.3835 114.577 40.5412 114.168 40.8565C113.759 41.1719 113.472 41.5085 113.305 41.8665L111.874 41.3551C112.129 40.7585 112.47 40.294 112.896 39.9616C113.327 39.625 113.795 39.3906 114.303 39.2585C114.814 39.1222 115.317 39.054 115.811 39.054C116.126 39.054 116.489 39.0923 116.898 39.169C117.311 39.2415 117.71 39.3928 118.093 39.6229C118.481 39.853 118.803 40.2003 119.058 40.6648C119.314 41.1293 119.442 41.7514 119.442 42.5312V49H117.933V47.6705H117.857C117.754 47.8835 117.584 48.1115 117.345 48.3544C117.107 48.5973 116.789 48.804 116.393 48.9744C115.996 49.1449 115.513 49.2301 114.942 49.2301ZM115.172 47.875C115.768 47.875 116.271 47.7578 116.68 47.5234C117.094 47.2891 117.405 46.9865 117.614 46.6158C117.827 46.245 117.933 45.8551 117.933 45.446V44.0653C117.869 44.142 117.729 44.2124 117.511 44.2763C117.298 44.3359 117.051 44.3892 116.77 44.4361C116.493 44.4787 116.222 44.517 115.958 44.5511C115.698 44.581 115.487 44.6065 115.325 44.6278C114.933 44.679 114.567 44.7621 114.226 44.8771C113.889 44.9879 113.616 45.1562 113.408 45.3821C113.203 45.6037 113.101 45.9062 113.101 46.2898C113.101 46.8139 113.295 47.2102 113.683 47.4787C114.075 47.7429 114.571 47.875 115.172 47.875ZM126.184 49.2045C125.263 49.2045 124.471 48.9872 123.806 48.5526C123.141 48.1179 122.63 47.5192 122.272 46.7564C121.914 45.9936 121.735 45.1222 121.735 44.142C121.735 43.1449 121.918 42.2649 122.285 41.5021C122.655 40.7351 123.171 40.1364 123.831 39.706C124.496 39.2713 125.272 39.054 126.158 39.054C126.849 39.054 127.471 39.1818 128.025 39.4375C128.579 39.6932 129.032 40.0511 129.386 40.5114C129.74 40.9716 129.959 41.5085 130.045 42.1222H128.536C128.421 41.6747 128.165 41.2784 127.769 40.9332C127.377 40.5838 126.849 40.4091 126.184 40.4091C125.596 40.4091 125.08 40.5625 124.637 40.8693C124.198 41.1719 123.855 41.6001 123.608 42.1541C123.365 42.7038 123.243 43.3494 123.243 44.0909C123.243 44.8494 123.363 45.5099 123.601 46.0724C123.844 46.6349 124.185 47.0717 124.624 47.3828C125.067 47.6939 125.587 47.8494 126.184 47.8494C126.576 47.8494 126.932 47.7812 127.251 47.6449C127.571 47.5085 127.841 47.3125 128.063 47.0568C128.285 46.8011 128.442 46.4943 128.536 46.1364H130.045C129.959 46.7159 129.748 47.2379 129.412 47.7024C129.079 48.1626 128.638 48.5291 128.089 48.8018C127.543 49.0703 126.908 49.2045 126.184 49.2045ZM131.476 40.5881V39.1818H139.454V40.5881H136.232V49H134.724V40.5881H131.476ZM145.261 49.2045C144.315 49.2045 143.499 48.9957 142.813 48.5781C142.131 48.1562 141.605 47.5682 141.234 46.8139C140.867 46.0554 140.684 45.1733 140.684 44.1676C140.684 43.1619 140.867 42.2756 141.234 41.5085C141.605 40.7372 142.12 40.1364 142.781 39.706C143.445 39.2713 144.221 39.054 145.107 39.054C145.619 39.054 146.124 39.1392 146.622 39.3097C147.121 39.4801 147.575 39.7571 147.984 40.1406C148.393 40.5199 148.719 41.0227 148.962 41.6491C149.205 42.2756 149.326 43.0469 149.326 43.9631V44.6023H141.758V43.2983H147.792C147.792 42.7443 147.681 42.25 147.46 41.8153C147.242 41.3807 146.931 41.0376 146.526 40.7862C146.126 40.5348 145.653 40.4091 145.107 40.4091C144.507 40.4091 143.987 40.5582 143.548 40.8565C143.113 41.1506 142.779 41.5341 142.544 42.0071C142.31 42.4801 142.193 42.9872 142.193 43.5284V44.3977C142.193 45.1392 142.32 45.7678 142.576 46.2834C142.836 46.7947 143.196 47.1847 143.656 47.4531C144.117 47.7173 144.651 47.8494 145.261 47.8494C145.657 47.8494 146.015 47.794 146.335 47.6832C146.659 47.5682 146.938 47.3977 147.172 47.1719C147.406 46.9418 147.588 46.6562 147.715 46.3153L149.173 46.7244C149.019 47.2188 148.762 47.6534 148.399 48.0284C148.037 48.3991 147.59 48.6889 147.057 48.8977C146.524 49.1023 145.926 49.2045 145.261 49.2045ZM151.621 52.6818V39.1818H153.078V40.7415H153.257C153.368 40.571 153.521 40.3537 153.718 40.0895C153.918 39.821 154.203 39.5824 154.574 39.3736C154.949 39.1605 155.456 39.054 156.095 39.054C156.922 39.054 157.651 39.2607 158.281 39.674C158.912 40.0874 159.404 40.6733 159.758 41.4318C160.112 42.1903 160.289 43.0852 160.289 44.1165C160.289 45.1562 160.112 46.0575 159.758 46.8203C159.404 47.5788 158.914 48.1669 158.288 48.5845C157.661 48.9979 156.939 49.2045 156.121 49.2045C155.49 49.2045 154.985 49.1001 154.606 48.8913C154.227 48.6783 153.935 48.4375 153.73 48.169C153.526 47.8963 153.368 47.6705 153.257 47.4915H153.129V52.6818H151.621ZM153.104 44.0909C153.104 44.8324 153.213 45.4865 153.43 46.0533C153.647 46.6158 153.965 47.0568 154.382 47.3764C154.8 47.6918 155.311 47.8494 155.916 47.8494C156.547 47.8494 157.073 47.6832 157.495 47.3509C157.921 47.0142 158.241 46.5625 158.454 45.9957C158.671 45.4247 158.78 44.7898 158.78 44.0909C158.78 43.4006 158.673 42.7784 158.46 42.2244C158.252 41.6662 157.934 41.2251 157.508 40.9013C157.086 40.5732 156.556 40.4091 155.916 40.4091C155.303 40.4091 154.787 40.5646 154.369 40.8757C153.952 41.1825 153.637 41.6129 153.423 42.1669C153.21 42.7166 153.104 43.358 153.104 44.0909ZM166.578 49.2045C165.658 49.2045 164.865 48.9872 164.2 48.5526C163.536 48.1179 163.024 47.5192 162.666 46.7564C162.308 45.9936 162.129 45.1222 162.129 44.142C162.129 43.1449 162.313 42.2649 162.679 41.5021C163.05 40.7351 163.566 40.1364 164.226 39.706C164.891 39.2713 165.666 39.054 166.553 39.054C167.243 39.054 167.865 39.1818 168.419 39.4375C168.973 39.6932 169.427 40.0511 169.781 40.5114C170.134 40.9716 170.354 41.5085 170.439 42.1222H168.931C168.816 41.6747 168.56 41.2784 168.164 40.9332C167.771 40.5838 167.243 40.4091 166.578 40.4091C165.99 40.4091 165.475 40.5625 165.031 40.8693C164.593 41.1719 164.249 41.6001 164.002 42.1541C163.759 42.7038 163.638 43.3494 163.638 44.0909C163.638 44.8494 163.757 45.5099 163.996 46.0724C164.239 46.6349 164.58 47.0717 165.019 47.3828C165.462 47.6939 165.982 47.8494 166.578 47.8494C166.97 47.8494 167.326 47.7812 167.646 47.6449C167.965 47.5085 168.236 47.3125 168.458 47.0568C168.679 46.8011 168.837 46.4943 168.931 46.1364H170.439C170.354 46.7159 170.143 47.2379 169.806 47.7024C169.474 48.1626 169.033 48.5291 168.483 48.8018C167.938 49.0703 167.303 49.2045 166.578 49.2045ZM172.644 49V39.1818H174.153V43.4517H175.15L178.678 39.1818H180.622L176.659 43.9119L180.673 49H178.73L175.508 44.858H174.153V49H172.644ZM185.202 49.2301C184.579 49.2301 184.015 49.1129 183.508 48.8786C183.001 48.6399 182.598 48.2969 182.3 47.8494C182.001 47.3977 181.852 46.8523 181.852 46.2131C181.852 45.6506 181.963 45.1946 182.184 44.8452C182.406 44.4915 182.702 44.2145 183.073 44.0142C183.444 43.8139 183.853 43.6648 184.3 43.5668C184.752 43.4645 185.206 43.3835 185.662 43.3239C186.258 43.2472 186.742 43.1896 187.113 43.1513C187.488 43.1087 187.76 43.0384 187.931 42.9403C188.106 42.8423 188.193 42.6719 188.193 42.429V42.3778C188.193 41.7472 188.02 41.2571 187.675 40.9077C187.334 40.5582 186.817 40.3835 186.122 40.3835C185.402 40.3835 184.837 40.5412 184.428 40.8565C184.019 41.1719 183.731 41.5085 183.565 41.8665L182.133 41.3551C182.389 40.7585 182.73 40.294 183.156 39.9616C183.586 39.625 184.055 39.3906 184.562 39.2585C185.074 39.1222 185.577 39.054 186.071 39.054C186.386 39.054 186.748 39.0923 187.157 39.169C187.571 39.2415 187.969 39.3928 188.353 39.6229C188.741 39.853 189.062 40.2003 189.318 40.6648C189.574 41.1293 189.702 41.7514 189.702 42.5312V49H188.193V47.6705H188.116C188.014 47.8835 187.844 48.1115 187.605 48.3544C187.366 48.5973 187.049 48.804 186.653 48.9744C186.256 49.1449 185.773 49.2301 185.202 49.2301ZM185.432 47.875C186.028 47.875 186.531 47.7578 186.94 47.5234C187.354 47.2891 187.665 46.9865 187.873 46.6158C188.086 46.245 188.193 45.8551 188.193 45.446V44.0653C188.129 44.142 187.988 44.2124 187.771 44.2763C187.558 44.3359 187.311 44.3892 187.03 44.4361C186.753 44.4787 186.482 44.517 186.218 44.5511C185.958 44.581 185.747 44.6065 185.585 44.6278C185.193 44.679 184.827 44.7621 184.486 44.8771C184.149 44.9879 183.876 45.1562 183.667 45.3821C183.463 45.6037 183.361 45.9062 183.361 46.2898C183.361 46.8139 183.555 47.2102 183.942 47.4787C184.334 47.7429 184.831 47.875 185.432 47.875ZM198.361 49V40.5625H195.753C195.165 40.5625 194.703 40.6989 194.366 40.9716C194.029 41.2443 193.861 41.6193 193.861 42.0966C193.861 42.5653 194.012 42.9339 194.315 43.2024C194.622 43.4709 195.042 43.6051 195.574 43.6051H198.745V45.0114H195.574C194.909 45.0114 194.336 44.8942 193.855 44.6598C193.373 44.4254 193.002 44.0909 192.743 43.6562C192.483 43.2173 192.353 42.6974 192.353 42.0966C192.353 41.4915 192.489 40.9716 192.762 40.5369C193.034 40.1023 193.424 39.7678 193.931 39.5334C194.443 39.299 195.05 39.1818 195.753 39.1818H199.793V49H198.361ZM191.816 49L194.603 44.1165H196.239L193.452 49H191.816Z" fill="#2B2929"/>
<path d="M5.64134 6.09091V25H1.64347V6.09091H5.64134ZM8.78285 25V22.6548L15.726 14.0589V13.9574H9.0229V10.8182H20.4625V13.3757L13.9441 21.7592V21.8608H20.7026V25H8.78285ZM23.7102 25V10.8182H27.4588V13.3203H27.625C27.9205 12.4893 28.4129 11.8338 29.1023 11.3537C29.7917 10.8736 30.6165 10.6335 31.5767 10.6335C32.5492 10.6335 33.3771 10.8767 34.0604 11.3629C34.7436 11.843 35.1991 12.4955 35.4268 13.3203H35.5746C35.8639 12.5078 36.3871 11.8584 37.1442 11.3722C37.9074 10.8797 38.8092 10.6335 39.8494 10.6335C41.1728 10.6335 42.2469 11.0552 43.0717 11.8984C43.9027 12.7356 44.3182 13.9235 44.3182 15.4624V25H40.3942V16.2379C40.3942 15.45 40.1849 14.8591 39.7663 14.4652C39.3478 14.0713 38.8246 13.8743 38.1967 13.8743C37.4827 13.8743 36.9257 14.102 36.5256 14.5575C36.1255 15.0069 35.9254 15.6009 35.9254 16.3395V25H32.1122V16.1548C32.1122 15.4593 31.9122 14.9053 31.5121 14.4929C31.1181 14.0805 30.598 13.8743 29.9517 13.8743C29.5147 13.8743 29.1207 13.9851 28.7699 14.2067C28.4252 14.4221 28.1513 14.7268 27.9482 15.1207C27.745 15.5085 27.6435 15.964 27.6435 16.4872V25H23.7102ZM51.4691 25.2678C50.5643 25.2678 49.7579 25.1108 49.0501 24.7969C48.3422 24.4768 47.7821 24.0059 47.3697 23.3842C46.9634 22.7564 46.7603 21.9747 46.7603 21.0391C46.7603 20.2512 46.9049 19.5895 47.1942 19.054C47.4835 18.5185 47.8775 18.0876 48.3761 17.7614C48.8746 17.4351 49.4409 17.1889 50.0749 17.0227C50.7151 16.8565 51.386 16.7396 52.0877 16.6719C52.9125 16.5857 53.5773 16.5057 54.082 16.4318C54.5868 16.3518 54.953 16.2348 55.1808 16.081C55.4085 15.9271 55.5224 15.6993 55.5224 15.3977V15.3423C55.5224 14.7576 55.3377 14.3052 54.9684 13.9851C54.6052 13.665 54.0882 13.505 53.4173 13.505C52.7094 13.505 52.1462 13.6619 51.7276 13.9759C51.3091 14.2836 51.0321 14.6714 50.8967 15.1392L47.2589 14.8438C47.4435 13.982 47.8067 13.2372 48.3484 12.6094C48.89 11.9754 49.5887 11.4891 50.4442 11.1506C51.306 10.8059 52.3031 10.6335 53.4357 10.6335C54.2236 10.6335 54.9776 10.7259 55.6978 10.9105C56.4241 11.0952 57.0674 11.3814 57.6275 11.7692C58.1938 12.157 58.64 12.6555 58.9663 13.2649C59.2925 13.8681 59.4556 14.5914 59.4556 15.4347V25H55.7255V23.0334H55.6147C55.387 23.4766 55.0823 23.8674 54.7006 24.206C54.319 24.5384 53.8604 24.8 53.3249 24.9908C52.7894 25.1754 52.1708 25.2678 51.4691 25.2678ZM52.5955 22.5533C53.1741 22.5533 53.685 22.4394 54.1282 22.2116C54.5714 21.9777 54.9192 21.6638 55.1715 21.2699C55.4239 20.8759 55.5501 20.4297 55.5501 19.9311V18.4261C55.427 18.5062 55.2577 18.58 55.0423 18.6477C54.833 18.7093 54.596 18.7678 54.3313 18.8232C54.0666 18.8724 53.802 18.9186 53.5373 18.9616C53.2726 18.9986 53.0326 19.0324 52.8171 19.0632C52.3555 19.1309 51.9523 19.2386 51.6076 19.3864C51.2629 19.5341 50.9951 19.7341 50.8043 19.9865C50.6135 20.2327 50.5181 20.5405 50.5181 20.9098C50.5181 21.4453 50.712 21.8546 51.0998 22.1378C51.4937 22.4148 51.9923 22.5533 52.5955 22.5533ZM62.5071 25V10.8182H66.4403V25H62.5071ZM64.483 8.99006C63.8982 8.99006 63.3965 8.79616 62.978 8.40838C62.5656 8.01444 62.3594 7.54356 62.3594 6.99574C62.3594 6.45407 62.5656 5.98935 62.978 5.60156C63.3965 5.20762 63.8982 5.01065 64.483 5.01065C65.0677 5.01065 65.5663 5.20762 65.9787 5.60156C66.3973 5.98935 66.6065 6.45407 66.6065 6.99574C66.6065 7.54356 66.3973 8.01444 65.9787 8.40838C65.5663 8.79616 65.0677 8.99006 64.483 8.99006ZM73.5243 6.09091V25H69.5911V6.09091H73.5243ZM83.0827 25.277C81.6486 25.277 80.4083 24.9723 79.3619 24.3629C78.3216 23.7474 77.5183 22.8918 76.9521 21.7962C76.3858 20.6944 76.1026 19.4171 76.1026 17.9645C76.1026 16.4995 76.3858 15.2192 76.9521 14.1236C77.5183 13.0218 78.3216 12.1662 79.3619 11.5568C80.4083 10.9413 81.6486 10.6335 83.0827 10.6335C84.5169 10.6335 85.7541 10.9413 86.7944 11.5568C87.8408 12.1662 88.6471 13.0218 89.2134 14.1236C89.7797 15.2192 90.0629 16.4995 90.0629 17.9645C90.0629 19.4171 89.7797 20.6944 89.2134 21.7962C88.6471 22.8918 87.8408 23.7474 86.7944 24.3629C85.7541 24.9723 84.5169 25.277 83.0827 25.277ZM83.1012 22.2301C83.7537 22.2301 84.2984 22.0455 84.7354 21.6761C85.1725 21.3007 85.5018 20.7898 85.7234 20.1435C85.9511 19.4972 86.065 18.7616 86.065 17.9368C86.065 17.112 85.9511 16.3764 85.7234 15.7301C85.5018 15.0838 85.1725 14.5729 84.7354 14.1974C84.2984 13.822 83.7537 13.6342 83.1012 13.6342C82.4426 13.6342 81.8886 13.822 81.4393 14.1974C80.9961 14.5729 80.6606 15.0838 80.4329 15.7301C80.2113 16.3764 80.1005 17.112 80.1005 17.9368C80.1005 18.7616 80.2113 19.4972 80.4329 20.1435C80.6606 20.7898 80.9961 21.3007 81.4393 21.6761C81.8886 22.0455 82.4426 22.2301 83.1012 22.2301ZM105.385 10.8182L100.427 25H95.995L91.0369 10.8182H95.1918L98.1371 20.9652H98.2848L101.221 10.8182H105.385ZM116.171 25V27.9822H103.753V25H116.171ZM122.958 25.2308C121.88 25.2308 120.905 24.9538 120.031 24.3999C119.163 23.8397 118.473 23.018 117.963 21.9347C117.458 20.8452 117.205 19.5095 117.205 17.9276C117.205 16.3026 117.467 14.9515 117.99 13.8743C118.513 12.791 119.209 11.9815 120.077 11.446C120.951 10.9044 121.908 10.6335 122.948 10.6335C123.742 10.6335 124.404 10.7689 124.933 11.0398C125.469 11.3045 125.9 11.6368 126.226 12.0369C126.558 12.4309 126.811 12.8187 126.983 13.2003H127.103V6.09091H131.027V25H127.149V22.7287H126.983C126.798 23.1226 126.537 23.5135 126.198 23.9013C125.866 24.2829 125.432 24.5999 124.896 24.8523C124.367 25.1046 123.721 25.2308 122.958 25.2308ZM124.204 22.1009C124.838 22.1009 125.374 21.9285 125.811 21.5838C126.254 21.233 126.592 20.7436 126.826 20.1158C127.066 19.4879 127.186 18.7524 127.186 17.9091C127.186 17.0658 127.069 16.3333 126.835 15.7116C126.602 15.09 126.263 14.6098 125.82 14.2713C125.377 13.9328 124.838 13.7635 124.204 13.7635C123.558 13.7635 123.013 13.9389 122.57 14.2898C122.127 14.6406 121.791 15.1269 121.563 15.7486C121.336 16.3703 121.222 17.0904 121.222 17.9091C121.222 18.7339 121.336 19.4633 121.563 20.0973C121.797 20.7251 122.133 21.2176 122.57 21.5746C123.013 21.9254 123.558 22.1009 124.204 22.1009ZM140.724 25.277C139.265 25.277 138.01 24.9815 136.957 24.3906C135.911 23.7936 135.104 22.9503 134.538 21.8608C133.972 20.7652 133.689 19.4695 133.689 17.9737C133.689 16.5149 133.972 15.2346 134.538 14.1328C135.104 13.031 135.901 12.1723 136.929 11.5568C137.963 10.9413 139.176 10.6335 140.567 10.6335C141.503 10.6335 142.374 10.7843 143.18 11.0859C143.993 11.3814 144.7 11.8277 145.304 12.4247C145.913 13.0218 146.387 13.7727 146.725 14.6776C147.064 15.5762 147.233 16.6288 147.233 17.8352V18.9155H135.258V16.478H143.531C143.531 15.9117 143.408 15.41 143.162 14.973C142.915 14.536 142.574 14.1944 142.137 13.9482C141.706 13.6958 141.204 13.5696 140.632 13.5696C140.035 13.5696 139.505 13.7081 139.044 13.9851C138.588 14.2559 138.231 14.6222 137.973 15.0838C137.714 15.5393 137.582 16.0471 137.576 16.6072V18.9247C137.576 19.6264 137.705 20.2327 137.963 20.7436C138.228 21.2545 138.6 21.6484 139.081 21.9254C139.561 22.2024 140.13 22.3409 140.789 22.3409C141.226 22.3409 141.626 22.2794 141.989 22.1562C142.352 22.0331 142.663 21.8485 142.922 21.6023C143.18 21.3561 143.377 21.0545 143.512 20.6974L147.15 20.9375C146.966 21.8116 146.587 22.5748 146.015 23.2273C145.448 23.8736 144.716 24.3783 143.817 24.7415C142.925 25.0985 141.894 25.277 140.724 25.277ZM161.6 14.8622L157.999 15.0838C157.937 14.776 157.805 14.4991 157.602 14.2528C157.399 14.0005 157.131 13.8004 156.799 13.6527C156.472 13.4988 156.082 13.4219 155.626 13.4219C155.017 13.4219 154.503 13.5511 154.084 13.8097C153.666 14.062 153.456 14.4006 153.456 14.8253C153.456 15.1638 153.592 15.45 153.863 15.6839C154.133 15.9179 154.598 16.1056 155.257 16.2472L157.824 16.7642C159.202 17.0473 160.23 17.5028 160.907 18.1307C161.584 18.7585 161.923 19.5833 161.923 20.6051C161.923 21.5346 161.649 22.3501 161.101 23.0518C160.56 23.7536 159.815 24.3014 158.867 24.6953C157.925 25.0831 156.839 25.277 155.608 25.277C153.73 25.277 152.234 24.8861 151.12 24.1044C150.012 23.3165 149.363 22.2455 149.172 20.8913L153.041 20.6882C153.158 21.2607 153.441 21.6977 153.89 21.9993C154.34 22.2947 154.915 22.4425 155.617 22.4425C156.306 22.4425 156.86 22.3101 157.279 22.0455C157.703 21.7746 157.919 21.4268 157.925 21.0021C157.919 20.6451 157.768 20.3527 157.473 20.125C157.177 19.8911 156.722 19.7126 156.106 19.5895L153.65 19.1001C152.265 18.8232 151.234 18.343 150.557 17.6598C149.886 16.9766 149.551 16.1056 149.551 15.0469C149.551 14.1359 149.797 13.3511 150.289 12.6925C150.788 12.0339 151.487 11.526 152.385 11.169C153.29 10.812 154.349 10.6335 155.561 10.6335C157.353 10.6335 158.762 11.0121 159.79 11.7692C160.824 12.5263 161.427 13.5573 161.6 14.8622ZM164.4 25V10.8182H168.333V25H164.4ZM166.376 8.99006C165.791 8.99006 165.289 8.79616 164.871 8.40838C164.458 8.01444 164.252 7.54356 164.252 6.99574C164.252 6.45407 164.458 5.98935 164.871 5.60156C165.289 5.20762 165.791 5.01065 166.376 5.01065C166.96 5.01065 167.459 5.20762 167.871 5.60156C168.29 5.98935 168.499 6.45407 168.499 6.99574C168.499 7.54356 168.29 8.01444 167.871 8.40838C167.459 8.79616 166.96 8.99006 166.376 8.99006ZM177.873 30.6136C176.599 30.6136 175.506 30.4382 174.595 30.0874C173.69 29.7427 172.97 29.2718 172.435 28.6747C171.899 28.0777 171.551 27.4067 171.391 26.6619L175.029 26.1726C175.14 26.4557 175.315 26.7204 175.555 26.9666C175.795 27.2128 176.112 27.4098 176.506 27.5575C176.906 27.7114 177.393 27.7884 177.965 27.7884C178.821 27.7884 179.526 27.5791 180.08 27.1605C180.64 26.7481 180.92 26.0556 180.92 25.0831V22.4886H180.754C180.581 22.8826 180.323 23.255 179.978 23.6058C179.633 23.9567 179.19 24.2429 178.648 24.4645C178.107 24.6861 177.46 24.7969 176.71 24.7969C175.645 24.7969 174.675 24.5507 173.801 24.0582C172.933 23.5597 172.241 22.7995 171.724 21.7777C171.213 20.7498 170.957 19.451 170.957 17.8814C170.957 16.2749 171.219 14.933 171.742 13.8558C172.265 12.7786 172.961 11.9723 173.829 11.4368C174.703 10.9013 175.66 10.6335 176.7 10.6335C177.494 10.6335 178.159 10.7689 178.695 11.0398C179.23 11.3045 179.661 11.6368 179.987 12.0369C180.32 12.4309 180.575 12.8187 180.754 13.2003H180.901V10.8182H184.807V25.1385C184.807 26.3449 184.511 27.3544 183.92 28.1669C183.33 28.9794 182.511 29.5888 181.464 29.995C180.424 30.4074 179.227 30.6136 177.873 30.6136ZM177.956 21.8423C178.59 21.8423 179.125 21.6854 179.562 21.3714C180.006 21.0514 180.344 20.5959 180.578 20.005C180.818 19.4079 180.938 18.6939 180.938 17.8629C180.938 17.032 180.821 16.3118 180.587 15.7024C180.353 15.0869 180.015 14.6098 179.572 14.2713C179.129 13.9328 178.59 13.7635 177.956 13.7635C177.31 13.7635 176.765 13.9389 176.322 14.2898C175.879 14.6345 175.543 15.1146 175.315 15.7301C175.088 16.3456 174.974 17.0566 174.974 17.8629C174.974 18.6816 175.088 19.3894 175.315 19.9865C175.549 20.5774 175.885 21.036 176.322 21.3622C176.765 21.6823 177.31 21.8423 177.956 21.8423ZM191.87 16.8011V25H187.937V10.8182H191.685V13.3203H191.852C192.165 12.4955 192.692 11.843 193.43 11.3629C194.169 10.8767 195.065 10.6335 196.117 10.6335C197.102 10.6335 197.961 10.849 198.693 11.2798C199.426 11.7107 199.995 12.3262 200.401 13.1264C200.808 13.9205 201.011 14.8684 201.011 15.9702V25H197.077V16.6719C197.084 15.804 196.862 15.1269 196.413 14.6406C195.963 14.1482 195.345 13.902 194.557 13.902C194.027 13.902 193.56 14.0159 193.153 14.2436C192.753 14.4714 192.439 14.8037 192.212 15.2408C191.99 15.6716 191.876 16.1918 191.87 16.8011Z" fill="#2B2929"/>
</svg>
