<svg width="15" height="15" fill="none" xmlns="http://www.w3.org/2000/svg"><path d="M7.5 0A7.5 7.5 0 000 7.5c0 1.407.395 2.719 1.07 3.844L.066 15l3.734-.98A7.46 7.46 0 007.5 15a7.5 7.5 0 000-15zM4.933 4.001c.122 0 .247 0 .355.005.134.003.28.013.419.321.165.367.526 1.285.572 1.379.047.093.08.202.015.324-.061.125-.093.2-.183.312-.093.107-.195.24-.28.322-.093.093-.19.195-.081.38.107.186.48.795 1.032 1.286.71.634 1.308.829 1.494.922.187.093.294.078.402-.047.11-.122.465-.54.59-.726.121-.186.246-.154.415-.093.17.061 1.084.511 1.27.604.187.094.309.14.356.215.048.078.048.45-.107.884-.154.433-.912.852-1.252.881-.343.032-.663.155-2.23-.462-1.89-.745-3.082-2.68-3.175-2.805-.093-.122-.757-1.007-.757-1.92 0-.915.48-1.363.648-1.55a.683.683 0 01.497-.232z" fill="#2B2929"/></svg>
